# xmcd CD database file
#
# Track frame offsets:
#	150
#	15434
#	32125
#	49378
#	63067
#	78448
#	91041
#	107136
#	123608
#	142247
#	158345
#	171193
#	188369
#	200533
#	216036
#	239061
#
# Disc length: 3400 seconds
#
# Revision: 0
# Processed by: cddbd v1.5.2PL0 Copyright (c) Steve Scherf et al.
# Submitted via: CDex 1.70beta2
#
DISCID=d40d4610
DTITLE=Ella Fitzgerlad - 4CD Set - CD 3
DYEAR=2006
DGENRE=Jazz
TTITLE0=The Lady Is A Tramp
TTITLE1=Have You Met Miss Jones?
TTITLE2=Too Darn Hot
TTITLE3=Miss Otis Regrets
TTITLE4=Get Out Of Town
TTITLE5=Where Or When
TTITLE6=Let´s Do It (Let´s Fall In Love)
TTITLE7=Begin The Begiune
TTITLE8=I Am In Love
TTITLE9=Ev´re Time We Say Goodbye
TTITLE10=I´m Always True To You In My Fashion
TTITLE11=Baby, What Else Can I Do?
TTITLE12=I´ve Got Five Dollars
TTITLE13=Easy To Lve
TTITLE14=Why Can´t You Behave?
TTITLE15=You´re The Top
EXTD=YEAR: 2006
EXTT0=
EXTT1=
EXTT2=
EXTT3=
EXTT4=
EXTT5=
EXTT6=
EXTT7=
EXTT8=
EXTT9=
EXTT10=
EXTT11=
EXTT12=
EXTT13=
EXTT14=
EXTT15=
PLAYORDER=
